<svg viewBox="0 0 100 100" xmlns="http://www.w3.org/2000/svg" aria-labelledby="title">
  <title>Crossroads logo</title>
  <g fill="none" stroke-linecap="round">
    <g stroke="#1E1E1E" stroke-width="2.5">
      <path d="M 18 92 C 28 70, 40 40, 48 25" />
      <path d="M 82 92 C 72 70, 60 40, 52 25" />
    </g>
    <g stroke="#1E1E1E" stroke-width="2.2">
      <path d="M 10 74 C 40 76, 60 76, 90 74" />
      <path d="M 28 52 C 45 54, 55 54, 72 52" />
    </g>
    <g stroke="#F4C542" stroke-width="2">
      <path d="M 50 88 L 50 80" />
      <path d="M 50 68 L 50 62" />
      <path d="M 50 48 L 50 44" />
      <path d="M 50 36 L 50 33" />
      <path d="M 44 63 L 56 63" stroke-width="1.8" />
    </g>
    <path
      d="M 43 14 C 40 7, 60 7, 57 14 C 55 20, 45 20, 43 14"
      stroke="#E06D53"
      stroke-width="2"
    />
  </g>
</svg>
